<svg xmlns="http://www.w3.org/2000/svg" viewBox="0 0 128 128" role="img" aria-label="Nanobond">
  <defs>
    <linearGradient id="nb-surface" x1="0" y1="0" x2="128" y2="128" gradientUnits="userSpaceOnUse">
      <stop offset="0" stop-color="#0A1E4F" />
      <stop offset="1" stop-color="#031024" />
    </linearGradient>
    <linearGradient id="nb-letter" x1="34" y1="36" x2="94" y2="92" gradientUnits="userSpaceOnUse">
      <stop offset="0" stop-color="#7EE8FF" />
      <stop offset="1" stop-color="#5B7CFF" />
    </linearGradient>
    <linearGradient id="nb-glow" x1="56" y1="52" x2="108" y2="84" gradientUnits="userSpaceOnUse">
      <stop offset="0" stop-color="#A8FFF9" stop-opacity=".8" />
      <stop offset="1" stop-color="#5B7CFF" stop-opacity="0" />
    </linearGradient>
  </defs>
  <rect width="128" height="128" rx="32" fill="#030C1E" />
  <rect width="128" height="128" rx="32" fill="url(#nb-surface)" />
  <path
    d="M34 92V36h11.5L82.5 81.4V36H94v56H82.5L46 46.6V92H34Z"
    fill="url(#nb-letter)"
  />
  <path
    d="M88.6 76.4c-4.8 0-9.2 2.5-11.8 6.5L54 52h9.6l17 27.8c1.6-2.4 3.6-4.5 6-6.1 5-3.3 11.3-4 16.8-2.2l-2.5 8.9c-3.1-.8-6.4-1.1-9.3 .0Z"
    fill="url(#nb-glow)"
    opacity=".9"
  />
</svg>